<svg width="56" height="57" viewBox="0 0 56 57" fill="none" xmlns="http://www.w3.org/2000/svg">
<g clip-path="url(#clip0_2100_8513)">
<path d="M6.6249 10.674C7.94822 8.89968 9.46337 7.31991 11.1354 5.97102C11.1838 5.91717 11.2417 5.87813 11.3016 5.83707C15.2305 2.72397 19.9995 0.892454 25.1406 0.892454C26.0675 0.891781 27.0011 0.961109 27.9831 1.09236C28.9248 0.965147 29.8813 0.893126 30.8519 0.893127C44.2359 0.893128 55.1247 13.2775 55.1253 28.4984C55.1253 43.7186 44.2359 56.1024 30.8519 56.1024C29.8988 56.1024 28.9652 56.0182 28.041 55.8964C27.0367 56.0324 26.0863 56.1024 25.1406 56.1017C20.6174 56.1017 16.3849 54.6801 12.7562 52.2213C12.7373 52.2132 12.7239 52.1984 12.7057 52.1896C12.6371 52.1425 12.5664 52.0974 12.4984 52.0496C12.4836 52.0362 12.4627 52.0301 12.4486 52.016C12.4459 52.0133 12.4452 52.0099 12.4425 52.0072C11.27 51.1847 10.16 50.2592 9.13019 49.2293C8.5143 48.6134 7.92668 47.9612 7.36868 47.278C7.35925 47.2699 7.34579 47.2659 7.33704 47.2571C7.30675 47.2268 7.29127 47.1844 7.26502 47.1501C5.84679 45.394 4.62511 43.4292 3.6417 41.3002C3.62286 41.2625 3.60603 41.2255 3.59122 41.1851C2.91543 39.7056 2.35742 38.1474 1.92327 36.5272C1.87952 36.4377 1.85798 36.3394 1.84452 36.2371C1.43931 34.6634 1.15324 33.0338 1.00112 31.3591C1.00112 31.3591 1.00045 31.3557 0.999778 31.3537L1.00045 31.3517C0.915635 30.4134 0.867845 29.4623 0.867845 28.4984C0.867845 24.3063 1.69779 20.3317 3.17457 16.7696C3.18803 16.7306 3.20082 16.6949 3.21832 16.6585C4.10211 14.5511 5.21475 12.5903 6.51787 10.8174C6.5522 10.7669 6.58115 10.715 6.6249 10.674ZM5.55803 16.1228L9.16317 16.1228C9.31193 15.7869 9.46539 15.453 9.62559 15.1245C9.69559 14.9805 9.76964 14.8391 9.84233 14.6964C10.0362 14.3168 10.2374 13.9432 10.4454 13.5751C10.5249 13.4351 10.6016 13.2924 10.6837 13.1537C10.8513 12.869 11.027 12.591 11.204 12.3143L7.79004 12.3143C6.95068 13.501 6.20556 14.7752 5.55803 16.1228ZM3.79383 20.8823L7.52551 20.8823C7.55445 20.7672 7.58138 20.6514 7.61234 20.537C7.62446 20.4925 7.63388 20.4468 7.64532 20.403C7.80148 19.8241 7.97784 19.2547 8.16563 18.6927C8.20602 18.5728 8.24775 18.4544 8.28948 18.3359C8.32516 18.2329 8.36015 18.1293 8.3965 18.027H4.72944C4.36866 18.9505 4.05835 19.9042 3.79383 20.8823ZM2.92351 25.6418H6.70769C6.74404 25.242 6.7898 24.8448 6.84164 24.4497C6.84567 24.4201 6.84769 24.3898 6.85173 24.3588C6.92241 23.8291 7.00722 23.3054 7.10414 22.7858L3.34958 22.7858C3.1638 23.7201 3.01774 24.6712 2.92351 25.6418ZM12.5327 10.4108C12.6411 10.2688 12.7488 10.1274 12.8592 9.98742C13.1452 9.62866 13.4394 9.27797 13.7416 8.93671C13.9153 8.74016 14.0937 8.55102 14.2727 8.3612C14.4531 8.1687 14.6362 7.98023 14.8213 7.79378C14.8994 7.7157 14.9734 7.63223 15.0521 7.55483L12.1901 7.55483C11.1448 8.41034 10.1681 9.36682 9.26683 10.4108H12.5327ZM21.0973 3.21668C18.9151 3.67573 16.852 4.51913 14.9391 5.65129L17.2411 5.65129C17.3609 5.55841 17.4841 5.47157 17.6046 5.38205C17.8051 5.23262 18.0051 5.08252 18.2097 4.93982C18.5826 4.68 18.9615 4.43163 19.3465 4.1947C19.5195 4.08902 19.6945 3.99074 19.8702 3.88911C20.1738 3.71343 20.4814 3.54448 20.7924 3.38293C20.896 3.33043 20.9943 3.26851 21.0973 3.21668ZM53.2218 28.4971C53.2218 20.7672 50.2366 13.8241 45.5208 9.10835C41.5913 5.17877 36.4582 2.79599 30.8512 2.79599C30.096 2.79599 29.3502 2.84041 28.6145 2.92455L28.2079 2.98109C28.177 2.98513 28.146 2.99052 28.1151 2.99455C27.4245 3.09148 26.7453 3.22408 26.0769 3.39034C26.0621 3.39438 26.0473 3.39841 26.0325 3.40245C25.3742 3.56804 24.7267 3.76728 24.0926 3.99748C24.0637 4.00757 24.0347 4.02036 24.0064 4.03113C23.402 4.25326 22.8097 4.505 22.2301 4.78299C22.1796 4.80789 22.1292 4.83145 22.0787 4.85636C21.5637 5.10877 21.063 5.38878 20.5696 5.68293C20.4551 5.75158 20.3387 5.81553 20.2249 5.88621C19.7672 6.17025 19.3243 6.47853 18.8875 6.79691C18.7367 6.9073 18.5846 7.015 18.4358 7.1301C18.0293 7.44242 17.6348 7.77224 17.2485 8.11418C17.0903 8.25351 16.9328 8.39486 16.7773 8.53958C16.4044 8.8869 16.0416 9.24835 15.6896 9.62192C15.5455 9.77539 15.4049 9.93088 15.2642 10.0877C14.9128 10.4808 14.5695 10.8847 14.2411 11.3033C14.126 11.4494 14.0162 11.6008 13.9038 11.7496C13.5646 12.2019 13.2348 12.6623 12.9245 13.1409C12.8511 13.2533 12.7838 13.3704 12.7124 13.4835C12.4062 13.9715 12.112 14.4689 11.8361 14.9818C11.7943 15.0586 11.7506 15.1346 11.7095 15.212C11.4086 15.7835 11.13 16.3705 10.8681 16.9688C10.8284 17.0584 10.7867 17.1459 10.749 17.2361C10.4919 17.8405 10.2576 18.4584 10.0422 19.0871C10.0086 19.1854 9.97358 19.2823 9.94128 19.3806C9.73194 20.0126 9.54549 20.6568 9.37856 21.311C9.35299 21.4107 9.32876 21.5103 9.30452 21.6099C9.14433 22.2722 9.00499 22.9433 8.89056 23.6245C8.87508 23.718 8.86162 23.8123 8.84681 23.9065C8.73709 24.6032 8.64824 25.3072 8.58834 26.0201C8.58228 26.0907 8.57959 26.1621 8.5742 26.2334C8.51699 26.9799 8.48266 27.7331 8.48266 28.4951C8.48266 29.2611 8.51766 30.0176 8.57488 30.7681C8.57959 30.8334 8.58228 30.8994 8.58766 30.9653C8.64757 31.6849 8.73777 32.3957 8.84816 33.0984C8.86162 33.1846 8.87441 33.2714 8.88854 33.3582C9.00364 34.0482 9.145 34.728 9.30721 35.3977C9.32942 35.4873 9.35164 35.5768 9.37385 35.6663C9.54212 36.3313 9.73262 36.9863 9.94599 37.6291C9.97426 37.7139 10.0039 37.7973 10.0335 37.8822C10.2536 38.525 10.4932 39.1563 10.7557 39.7729C10.7874 39.8463 10.821 39.919 10.854 39.9923C11.1259 40.6143 11.4154 41.2255 11.7284 41.8185C11.7553 41.8696 11.7849 41.9181 11.8125 41.9686C12.1019 42.5084 12.4122 43.0327 12.7353 43.5456C12.7966 43.6419 12.8538 43.7422 12.9157 43.8378C13.2348 44.3305 13.5754 44.8043 13.924 45.2701C14.0257 45.4054 14.126 45.5434 14.2303 45.676C14.5675 46.1061 14.9189 46.5194 15.2797 46.9233C15.4116 47.07 15.5428 47.2161 15.6775 47.3588C16.0376 47.7418 16.4098 48.1113 16.7914 48.4674C16.9368 48.6033 17.0856 48.7359 17.2343 48.8672C17.6288 49.2159 18.032 49.5531 18.448 49.8721C18.5873 49.9792 18.7307 50.0808 18.8727 50.1851C19.3176 50.5102 19.7693 50.8246 20.2357 51.1133C20.34 51.1786 20.4484 51.2372 20.5534 51.3005C21.0589 51.6027 21.5738 51.8901 22.1022 52.1479C22.1399 52.1667 22.1776 52.1842 22.2153 52.2031C22.8043 52.4865 23.406 52.7422 24.0206 52.9677C24.0441 52.9765 24.0663 52.9866 24.0892 52.9947C24.726 53.2262 25.3769 53.4261 26.0385 53.5924C26.0513 53.5957 26.0628 53.5991 26.0756 53.6025C26.7446 53.7694 27.4258 53.9027 28.1177 53.9996C28.1447 54.0036 28.1716 54.0077 28.1992 54.0111L28.6165 54.0703C29.3522 54.1544 30.0967 54.1988 30.8519 54.1988C43.1865 54.1982 53.2218 42.6686 53.2218 28.4971ZM3.53872 35.1608H7.30271C7.27108 35.0147 7.23607 34.8707 7.20646 34.724C7.19703 34.6782 7.18559 34.6331 7.17684 34.588C7.0577 33.9896 6.95876 33.3818 6.87529 32.7693C6.8551 32.6198 6.83962 32.4697 6.82077 32.3203C6.8201 32.3156 6.8201 32.3102 6.81875 32.3048H3.03725C3.16178 33.2734 3.32063 34.2306 3.53872 35.1608ZM5.11849 39.9203H8.75729C8.57555 39.468 8.40526 39.0083 8.24439 38.5431C8.20669 38.4328 8.17236 38.3203 8.13601 38.2086C8.01081 37.8303 7.89033 37.45 7.77927 37.0643L4.0597 37.0643C4.36395 38.0457 4.718 38.9975 5.11849 39.9203ZM8.50488 45.6316L11.8394 45.6316C11.723 45.464 11.6059 45.2984 11.4921 45.1281C11.2054 44.6973 10.9274 44.2578 10.6628 43.8075C10.5821 43.6702 10.5074 43.5268 10.4286 43.3875C10.2226 43.024 10.0241 42.6558 9.8329 42.2802C9.7555 42.1288 9.67877 41.9766 9.60472 41.8232L6.03324 41.8232C6.75481 43.1828 7.58474 44.453 8.50488 45.6316ZM20.4619 53.4288C20.2956 53.3393 20.13 53.2504 19.9665 53.1569C19.494 52.8863 19.0322 52.5982 18.5785 52.2953L16.7389 52.296C18.1302 52.9469 19.5828 53.4598 21.0973 53.7788C20.8805 53.6698 20.6746 53.5432 20.4619 53.4288ZM13.4616 50.3918L16.0941 50.3911C15.6909 50.0391 15.2965 49.6769 14.9142 49.2973C14.8906 49.2738 14.8637 49.2536 14.8401 49.23C14.6887 49.0786 14.544 48.9177 14.3959 48.7615C14.0903 48.4398 13.7914 48.11 13.5006 47.7707C13.4333 47.6926 13.3654 47.6139 13.2987 47.5351L10.1553 47.5351C11.1784 48.5986 12.2817 49.5578 13.4616 50.3918ZM2.84475 30.4013H6.64105C6.64038 30.3912 6.64105 30.3811 6.64038 30.371C6.60336 29.7511 6.57913 29.1278 6.57845 28.4971C6.57845 28.178 6.59057 27.8617 6.59932 27.5446L2.80706 27.5446C2.79696 27.863 2.76936 28.176 2.77003 28.4971C2.77004 29.1392 2.80436 29.7713 2.84475 30.4013Z" fill="#E4387A" stroke="#E4387A" stroke-width="0.002"/>
<path d="M47.2496 36.857C47.1076 36.8079 46.9844 36.7291 46.8855 36.6302C46.6364 36.3811 46.5361 36.0035 46.658 35.6488C46.8518 35.0821 47.0235 34.4998 47.1695 33.9176C47.2974 33.4074 47.8137 33.0971 48.3239 33.225C48.8341 33.3529 49.1444 33.8691 49.0165 34.3793C48.8583 35.0141 48.6705 35.6488 48.4592 36.2654C48.2875 36.7628 47.7464 37.028 47.2496 36.857Z" fill="#E4387A" stroke="#E4387A" stroke-width="0.002"/>
<path d="M48.1134 29.1945C47.9344 29.0154 47.8233 28.767 47.824 28.4985C47.824 27.9088 47.8011 27.3152 47.7553 26.7323C47.7143 26.2079 48.106 25.7502 48.6303 25.7091C49.154 25.6688 49.6117 26.0605 49.6535 26.5842C49.7026 27.2149 49.7275 27.859 49.7275 28.5187L48.7757 28.5442L49.7275 28.5442C49.7275 29.0706 49.3021 29.4731 48.7757 29.4731C48.5179 29.4725 48.2844 29.3654 48.1134 29.1945Z" fill="#E4387A" stroke="#E4387A" stroke-width="0.002"/>
<path d="M33.6517 48.7662C33.7136 49.2885 33.34 49.7617 32.8184 49.823C32.1722 49.8997 31.5105 49.9381 30.9148 49.936C30.8832 49.9381 30.8219 49.9387 30.7896 49.9374C30.5433 49.9293 30.3238 49.827 30.163 49.6661C29.9859 49.4891 29.8803 49.2421 29.885 48.9695C29.8944 48.4498 30.3319 48.0339 30.8515 48.0339C31.4358 48.0339 32.0221 47.9995 32.5942 47.9322C33.1172 47.871 33.5897 48.2439 33.6517 48.7662Z" fill="#E4387A" stroke="#E4387A" stroke-width="0.002"/>
<path d="M18.5005 15.0976C18.1249 15.5553 17.7641 16.0399 17.4282 16.5387C17.1348 16.9749 16.5431 17.09 16.1069 16.7965C16.0551 16.7622 16.0073 16.7225 15.9649 16.6801C15.6492 16.3644 15.5907 15.8602 15.8498 15.4759C16.2193 14.9273 16.6165 14.3942 17.0291 13.8901C17.3623 13.4842 17.962 13.4243 18.3685 13.7581C18.7751 14.0906 18.833 14.691 18.5005 15.0976Z" fill="#E4387A" stroke="#E4387A" stroke-width="0.002"/>
<path d="M26.1776 48.312C25.9939 48.804 25.4453 49.0551 24.9533 48.8713C24.3354 48.6411 23.7208 48.3699 23.1271 48.067C23.0356 48.0199 22.9548 47.9606 22.8862 47.892C22.6021 47.6079 22.5193 47.163 22.7118 46.7861C22.9508 46.3182 23.5236 46.1318 23.9928 46.3707C24.5225 46.6407 25.069 46.8816 25.619 47.0869C26.1124 47.2707 26.3621 47.8193 26.1776 48.312Z" fill="#E4387A" stroke="#E4387A" stroke-width="0.002"/>
<path d="M22.4704 11.5046C22.0867 11.7564 21.5886 11.6944 21.2763 11.3821C21.2312 11.337 21.1895 11.2859 21.1525 11.23C20.8637 10.7905 20.9869 10.2001 21.4271 9.91206C21.9824 9.54791 22.5619 9.21203 23.1496 8.91385C23.6174 8.67624 24.1895 8.86067 24.4298 9.33117C24.6681 9.79965 24.481 10.3731 24.0125 10.6114C23.4854 10.8786 22.9672 11.1788 22.4704 11.5046Z" fill="#E4387A" stroke="#E4387A" stroke-width="0.002"/>
<path d="M37.6716 46.3939C38.1966 46.1287 38.7149 45.8285 39.2137 45.5034C39.6532 45.216 40.2402 45.3385 40.5309 45.7801C40.819 46.2203 40.6945 46.8106 40.2543 47.0973C39.697 47.4608 39.1174 47.7953 38.5305 48.0928C38.1542 48.2833 37.7106 48.1992 37.4279 47.9165C37.3586 47.8472 37.2994 47.765 37.2516 47.6728C37.0147 47.2043 37.2025 46.6315 37.6716 46.3939Z" fill="#E4387A" stroke="#E4387A" stroke-width="0.002"/>
<path d="M43.2441 43.1986C42.9015 42.856 42.8691 42.3027 43.1828 41.9217C43.5584 41.464 43.9199 40.9801 44.2571 40.4813C44.5512 40.0458 45.1436 39.9314 45.5791 40.2255C46.0146 40.521 46.129 41.112 45.8348 41.5475C45.4646 42.0954 45.0668 42.6278 44.6529 43.1306C44.319 43.5372 43.7186 43.5951 43.3134 43.2612C43.2892 43.241 43.2663 43.2208 43.2441 43.1986Z" fill="#E4387A" stroke="#E4387A" stroke-width="0.002"/>
<path d="M18.337 44.5551C18.337 44.5551 18.3356 44.5537 18.3343 44.5524C17.8725 44.088 17.4276 43.5932 17.0103 43.083C16.6771 42.6758 16.737 42.0761 17.1442 41.7429C17.5508 41.4104 18.1465 41.4716 18.4844 41.8768C18.8627 42.3399 19.2672 42.7889 19.6865 43.2109C20.0567 43.5838 20.0541 44.1869 19.6812 44.5571C19.3083 44.9273 18.7079 44.926 18.337 44.5551Z" fill="#E4387A" stroke="#E4387A" stroke-width="0.002"/>
<path d="M14.1394 38.3319C14.058 38.2505 13.99 38.1529 13.9415 38.0412C13.6804 37.4461 13.4414 36.8289 13.2294 36.2049C13.0604 35.7062 13.327 35.1663 13.8244 34.9974C14.3218 34.8284 14.861 35.0957 15.032 35.5924C15.2258 36.1646 15.4453 36.7313 15.6842 37.2759C15.8956 37.7578 15.6761 38.3192 15.1949 38.5298C14.8253 38.6934 14.4087 38.6012 14.1394 38.3319Z" fill="#E4387A" stroke="#E4387A" stroke-width="0.002"/>
<path d="M43.3012 15.2115C43.2783 15.1886 43.2561 15.165 43.2359 15.1394C42.8576 14.6763 42.4537 14.2267 42.0357 13.8033C41.6662 13.4298 41.6689 12.8267 42.0425 12.4571C42.4147 12.0889 43.0151 12.0903 43.3853 12.4605C43.3853 12.4605 43.3873 12.4625 43.3887 12.4639C43.8497 12.929 44.2947 13.425 44.7113 13.9359C45.0431 14.3432 44.9826 14.9422 44.5747 15.2747C44.193 15.5864 43.6424 15.5527 43.3012 15.2115Z" fill="#E4387A" stroke="#E4387A" stroke-width="0.002"/>
<path d="M46.9124 21.7951C46.8121 21.6948 46.7327 21.571 46.6843 21.4269C46.4924 20.8582 46.2737 20.2921 46.0347 19.7422C45.8247 19.2602 46.0441 18.6989 46.5268 18.4895C47.0087 18.2795 47.5707 18.4983 47.7794 18.9816C48.0412 19.5799 48.2795 20.1992 48.4888 20.8191C48.6571 21.3172 48.3892 21.8571 47.8911 22.0253C47.5357 22.1438 47.1601 22.0428 46.9124 21.7951Z" fill="#E4387A" stroke="#E4387A" stroke-width="0.002"/>
<path d="M29.0825 9.06427C28.7809 9.10062 28.4949 8.9909 28.2956 8.79167C28.1502 8.64628 28.0499 8.45175 28.0237 8.23164C27.9618 7.70932 28.334 7.23613 28.8556 7.17353C29.5139 7.09545 30.1857 7.05506 30.8682 7.05506L30.9099 8.00683L30.9099 7.05506C31.437 7.05439 31.8334 7.48046 31.8334 8.00683C31.8334 8.53319 31.3784 8.95859 30.8527 8.95927C30.2617 8.95927 29.6661 8.99494 29.0825 9.06427Z" fill="#E4387A" stroke="#E4387A" stroke-width="0.002"/>
<path d="M15.0396 21.3734C14.8464 21.9382 14.6755 22.5211 14.5294 23.106C14.4022 23.6169 13.8852 23.9265 13.3757 23.7993C13.202 23.7562 13.0513 23.6674 12.9335 23.5496C12.7053 23.3214 12.5989 22.9821 12.6824 22.6456C12.8412 22.0088 13.0277 21.3741 13.237 20.7596C13.4067 20.2615 13.9472 19.9956 14.4453 20.1652C14.9427 20.3355 15.2086 20.876 15.0396 21.3734Z" fill="#E4387A" stroke="#E4387A" stroke-width="0.002"/>
<path d="M37.7411 10.6366C37.2141 10.3667 36.6675 10.1244 36.1156 9.91706C35.9843 9.86793 35.8706 9.79321 35.777 9.69965C35.5212 9.44387 35.423 9.05213 35.5589 8.69134C35.744 8.1993 36.2933 7.95026 36.7853 8.13536C37.4039 8.36758 38.0178 8.63951 38.6088 8.94241C39.0766 9.18271 39.2617 9.75552 39.022 10.224C38.7824 10.6925 38.2083 10.8762 37.7411 10.6366Z" fill="#E4387A" stroke="#E4387A" stroke-width="0.002"/>
<path d="M13.07 31.3163C12.7812 31.3385 12.5113 31.2301 12.3215 31.0403C12.1673 30.8862 12.065 30.6775 12.0455 30.4426C11.9944 29.7991 11.9688 29.1448 11.9695 28.4993L11.9695 28.4832C11.9695 27.9568 12.3962 27.5395 12.9212 27.5395C13.4469 27.5402 13.873 27.9743 13.873 28.4993C13.873 29.0957 13.8965 29.6995 13.9437 30.2932C13.9861 30.8162 13.595 31.2745 13.07 31.3163Z" fill="#E4387A" stroke="#E4387A" stroke-width="0.002"/>
<path d="M-1.62339 20.4191C-1.25183 20.0476 -0.648733 20.0476 -0.27718 20.4191C0.0943726 20.7907 0.0943727 21.3938 -0.27718 21.7653C-3.61712 25.1053 -3.61712 30.5412 -0.27718 33.8812C0.0943727 34.2527 0.0943726 34.8558 -0.27718 35.2274C-0.648733 35.5989 -1.25183 35.5989 -1.62339 35.2274C-5.70643 31.1443 -5.70643 24.5022 -1.62339 20.4191Z" fill="#E4387A" stroke="#E4387A" stroke-width="0.002"/>
</g>
<defs>
<clipPath id="clip0_2100_8513">
<rect width="56" height="56" fill="white" transform="matrix(-1 0 0 1 56 0.5)"/>
</clipPath>
</defs>
</svg>
