<svg width="21" height="25" viewBox="0 0 21 25" fill="none" xmlns="http://www.w3.org/2000/svg">
<path d="M9.98097 9.46583H4.68558L2.85796 6.30226C2.6446 5.95397 2.30381 5.70426 1.90922 5.60707C1.51463 5.50988 1.09793 5.57303 0.749175 5.78287C0.408063 5.98966 0.159239 6.32104 0.0544936 6.70802C-0.0502523 7.095 -0.00285094 7.50778 0.186832 7.86044L2.29562 11.4018C2.39282 11.6583 2.56687 11.8779 2.7936 12.0302C3.02034 12.1825 3.28851 12.2599 3.56089 12.2517H6.93495V23.4422C6.93495 23.8555 7.09788 24.2518 7.38789 24.544C7.67791 24.8362 8.07125 25.0004 8.48139 25.0004C8.68233 25.0005 8.88123 24.9599 9.06629 24.881C9.25135 24.8022 9.4188 24.6866 9.55868 24.5413C9.69855 24.3959 9.80802 24.2238 9.88056 24.035C9.95311 23.8462 9.98725 23.6446 9.98097 23.4422V9.46583Z" fill="white"/>
<path d="M9.97927 0.399902H9.88554C7.72989 0.399902 5.66797 2.14695 5.66797 4.36618C5.66797 6.5854 7.72989 8.33245 9.88554 8.33245H9.97927V0.399902Z" fill="white"/>
<path d="M17.5235 5.59375V9.46559H10.8691V10.3627V12.2986V24.6696H13.634V12.2986H20.3352V9.79611V9.46559V5.59375H17.5235Z" fill="#0C9DD8"/>
<path d="M14.4775 0.399902H10.8691V8.23801H14.4775V0.399902Z" fill="#0C9DD8"/>
</svg>
